<?xml version="1.0" encoding="UTF-8"?>
<svg version="1.1" xmlns="http://www.w3.org/2000/svg" width="2000" height="2199">
<path d="M0 0 C6.58044265 3.88441495 13.25253935 7.59080908 19.9453125 11.27734375 C29.59911684 16.6042218 39.16098692 22.06417879 48.66796875 27.6484375 C55.3899726 31.59260664 62.15123225 35.45878578 68.9453125 39.27734375 C76.78170009 43.682386 84.56667665 48.16577448 92.3203125 52.71484375 C101.51188769 58.10548147 110.77865883 63.34541279 120.08935547 68.52709961 C128.26495243 73.08825561 136.3529271 77.7873193 144.42578125 82.52734375 C151.55059775 86.69978531 158.73085087 90.76215397 165.9453125 94.77734375 C175.10254565 99.87565299 184.1822442 105.0904243 193.22363281 110.39111328 C200.8533006 114.8601311 208.51508736 119.27096006 216.1953125 123.65234375 C217.0717894 124.15238922 217.0717894 124.15238922 217.9659729 124.66253662 C220.9372323 126.35737865 223.90894522 128.05142359 226.88085938 129.74511719 C232.15624545 132.75205119 237.42765688 135.76593992 242.69934082 138.77935791 C245.61449908 140.44564305 248.52991913 142.11147002 251.4453125 143.77734375 C252.61198042 144.44400823 253.77864709 145.11067489 254.9453125 145.77734375 C255.5228125 146.10734375 256.1003125 146.43734375 256.6953125 146.77734375 C261.9453125 149.77734375 261.9453125 149.77734375 263.69525146 150.77731323 C264.86211657 151.44409039 266.02898669 152.11085878 267.19586182 152.77761841 C270.10953341 154.44252281 273.02311828 156.10757861 275.93652344 157.77294922 C281.22216141 160.79414517 286.50845153 163.81417174 291.79792786 166.8286438 C294.76414644 168.5191345 297.7298637 170.2105031 300.6953125 171.90234375 C301.2782608 172.23490173 301.86120911 172.56745972 302.46182251 172.91009521 C310.54777219 177.52522422 318.60104021 182.19356187 326.6328125 186.90234375 C335.7209845 192.22963317 344.88587409 197.40497913 354.09057617 202.52783203 C362.26581588 207.08865475 370.35333706 211.78756001 378.42578125 216.52734375 C385.55059775 220.69978531 392.73085087 224.76215397 399.9453125 228.77734375 C409.10254565 233.87565299 418.1822442 239.0904243 427.22363281 244.39111328 C434.8533006 248.8601311 442.51508736 253.27096006 450.1953125 257.65234375 C451.0717894 258.15238922 451.0717894 258.15238922 451.9659729 258.66253662 C454.9372323 260.35737865 457.90894522 262.05142359 460.88085938 263.74511719 C466.15624545 266.75205119 471.42765688 269.76593992 476.69934082 272.77935791 C479.61449908 274.44564305 482.52991913 276.11147002 485.4453125 277.77734375 C486.61198042 278.44400823 487.77864709 279.11067489 488.9453125 279.77734375 C489.5228125 280.10734375 490.1003125 280.43734375 490.6953125 280.77734375 C495.9453125 283.77734375 495.9453125 283.77734375 497.69525146 284.77731323 C498.86211657 285.44409039 500.02898669 286.11085878 501.19586182 286.77761841 C504.10953341 288.44252281 507.02311828 290.10757861 509.93652344 291.77294922 C515.22216141 294.79414517 520.50845153 297.81417174 525.79792786 300.8286438 C528.76414644 302.5191345 531.7298637 304.2105031 534.6953125 305.90234375 C535.2782608 306.23490173 535.86120911 306.56745972 536.46182251 306.91009521 C544.54777219 311.52522422 552.60104021 316.19356187 560.6328125 320.90234375 C569.7209845 326.22963317 578.88587409 331.40497913 588.09057617 336.52783203 C596.26581588 341.08865475 604.35333706 345.78756001 612.42578125 350.52734375 C619.55059775 354.69978531 626.73085087 358.76215397 633.9453125 362.77734375 C643.10254565 367.87565299 652.1822442 373.0904243 661.22363281 378.39111328 C668.8533006 382.8601311 676.51508736 387.27096006 684.1953125 391.65234375 C685.0717894 392.15238922 685.0717894 392.15238922 685.9659729 392.66253662 C688.9372323 394.35737865 691.90894522 396.05142359 694.88085938 397.74511719 C700.15642297 400.75215238 705.4280231 403.76612312 710.69989014 406.77963257 C713.61231881 408.44442311 716.52488475 410.1089734 719.4375 411.7734375 C720.01460724 412.10324112 720.59171448 412.43304474 721.18630981 412.77284241 C724.70581629 414.78395828 728.22598062 416.79391753 731.74664307 418.80300903 C744.73634605 426.21574038 757.71103294 433.65345463 770.66113281 441.13525391 C782.0567715 447.71522732 793.48420607 454.23925747 804.91308594 460.76123047 C810.1757917 463.76467551 815.43648436 466.7716434 820.69732666 469.77835083 C823.61323922 471.44482657 826.52928248 473.11107357 829.4453125 474.77734375 C830.61197979 475.44400932 831.77864646 476.11067599 832.9453125 476.77734375 C833.5228125 477.10734375 834.1003125 477.43734375 834.6953125 477.77734375 C839.94531246 480.77734373 839.94531246 480.77734373 841.69525146 481.77731323 C842.86211657 482.44409039 844.02898669 483.11085878 845.19586182 483.77761841 C848.10953341 485.44252281 851.02311828 487.10757861 853.93652344 488.77294922 C859.22216141 491.79414517 864.50845153 494.81417174 869.79792786 497.8286438 C872.76414644 499.5191345 875.7298637 501.2105031 878.6953125 502.90234375 C879.2782608 503.23490173 879.86120911 503.56745972 880.46182251 503.91009521 C888.54777219 508.52522422 896.60104021 513.19356187 904.6328125 517.90234375 C913.7209845 523.22963317 922.88587409 528.40497913 932.09057617 533.52783203 C940.26581588 538.08865475 948.35333706 542.78756001 956.42578125 547.52734375 C963.55059775 551.69978531 970.73085087 555.76215397 977.9453125 559.77734375 C987.10254565 564.87565299 996.1822442 570.0904243 1005.22363281 575.39111328 C1012.8533006 579.8601311 1020.51508736 584.27096006 1028.1953125 588.65234375 C1029.0717894 589.15238922 1029.0717894 589.15238922 1029.9659729 589.66253662 C1032.9372323 591.35737865 1035.90894522 593.05142359 1038.88085938 594.74511719 C1044.15624545 597.75205119 1049.42765688 600.76593992 1054.69934082 603.77935791 C1057.61449908 605.44564305 1060.52991913 607.11147002 1063.4453125 608.77734375 C1064.61198042 609.44400823 1065.77864709 610.11067489 1066.9453125 610.77734375 C1067.5228125 611.10734375 1068.1003125 611.43734375 1068.6953125 611.77734375 C1073.94531246 614.77734373 1073.94531246 614.77734373 1075.69528198 615.77732849 C1076.86204787 616.4440504 1078.02881626 617.11076793 1079.19558716 617.77748108 C1082.11075628 619.44326659 1085.02588197 621.10912802 1087.94091797 622.77514648 C1093.20874445 625.78574688 1098.47688809 628.79578522 1103.74664307 631.80300903 C1116.73634605 639.21574038 1129.71103294 646.65345463 1142.66113281 654.13525391 C1154.0567715 660.71522732 1165.48420607 667.23925747 1176.91308594 673.76123047 C1182.1757917 676.76467551 1187.43648436 679.7716434 1192.69732666 682.77835083 C1195.61323922 684.44482657 1198.52928248 686.11107357 1201.4453125 687.77734375 C1202.61197979 688.44400932 1203.77864646 689.11067599 1204.9453125 689.77734375 C1205.5228125 690.10734375 1206.1003125 690.43734375 1206.6953125 690.77734375 C1239.94531249 709.77734374 1239.94531249 709.77734374 1241.69525146 710.77731323 C1242.86211657 711.44409039 1244.02898669 712.11085878 1245.19586182 712.77761841 C1248.10953341 714.44252281 1251.02311828 716.10757861 1253.93652344 717.77294922 C1259.22216141 720.79414517 1264.50845153 723.81417174 1269.79792786 726.8286438 C1272.76414644 728.5191345 1275.7298637 730.2105031 1278.6953125 731.90234375 C1279.2782608 732.23490173 1279.86120911 732.56745972 1280.46182251 732.91009521 C1288.54777219 737.52522422 1296.60104021 742.19356187 1304.6328125 746.90234375 C1313.7209845 752.22963317 1322.88587409 757.40497913 1332.09057617 762.52783203 C1340.26581588 767.08865475 1348.35333706 771.78756001 1356.42578125 776.52734375 C1363.5505944 780.69978334 1370.73077391 784.76229619 1377.9453125 788.77734375 C1387.16945979 793.91078224 1396.30771849 799.1731181 1405.41040039 804.51855469 C1412.68496028 808.77910408 1420.01771646 812.92553294 1427.3828125 817.02734375 C1434.87610199 821.20112483 1442.32796683 825.42391597 1449.70043945 829.80737305 C1455.99259319 833.53803902 1462.34688446 837.15769462 1468.7036438 840.77661133 C1490.96082328 853.4540376 1512.07684037 866.26599754 1531.06640625 883.62109375 C1533.22041759 885.57349811 1535.41558976 887.46011734 1537.6328125 889.33984375 C1540.93526158 892.21957935 1543.79973072 895.30763034 1546.625 898.65234375 C1547.84623713 900.07799396 1549.1026035 901.4742306 1550.390625 902.83984375 C1563.28365083 916.54165717 1573.56387564 932.25272989 1582.4453125 948.77734375 C1582.81350098 949.45861328 1583.18168945 950.13988281 1583.56103516 950.84179688 C1596.85073164 975.69493724 1604.66444858 1002.09513865 1609.4453125 1029.77734375 C1609.57953613 1030.53595703 1609.71375977 1031.29457031 1609.85205078 1032.07617188 C1617.21667467 1075.78744167 1609.08046714 1123.5094177 1591.4453125 1163.77734375 C1591.12723633 1164.5038916 1590.80916016 1165.23043945 1590.48144531 1165.97900391 C1579.8543333 1189.93289788 1565.48705181 1211.74791798 1547.4453125 1230.77734375 C1546.37737567 1232.04361171 1545.31458545 1233.31424407 1544.2578125 1234.58984375 C1533.78816031 1246.54818775 1521.29044253 1256.51164904 1508.4453125 1265.77734375 C1507.84847656 1266.20966309 1507.25164062 1266.64198242 1506.63671875 1267.08740234 C1496.58102551 1274.28429164 1485.78957822 1280.16161171 1474.98046875 1286.13671875 C1468.74610938 1289.59050398 1462.58850132 1293.16447802 1456.4453125 1296.77734375 C1447.29660772 1302.15002357 1438.07126323 1307.36811899 1428.80078125 1312.52734375 C1421.63177293 1316.52698974 1414.52444665 1320.62092627 1407.4453125 1324.77734375 C1398.2209615 1330.19185074 1388.92516778 1335.46365069 1379.58325195 1340.67236328 C1370.45393508 1345.76358984 1361.37436335 1350.9377685 1352.30664062 1356.13769531 C1347.42843023 1358.93309301 1342.54596996 1361.7210525 1337.66397095 1364.50982666 C1334.67294922 1366.21849875 1331.68219189 1367.92763349 1328.69140625 1369.63671875 C1327.48030724 1370.32877823 1326.26920698 1371.02083552 1325.05810547 1371.71289062 C1324.45987976 1372.05473389 1323.86165405 1372.39657715 1323.24530029 1372.7487793 C1289.94531261 1391.77734369 1289.94531261 1391.77734369 1288.19535828 1392.77731323 C1287.02853401 1393.44407286 1285.86171476 1394.11084125 1284.69490051 1394.77761841 C1281.78068604 1396.44293463 1278.86638508 1398.10809912 1275.9519043 1399.77294922 C1270.67255586 1402.78888981 1265.39387306 1405.80596716 1260.11837769 1408.8286438 C1257.16528234 1410.52062215 1254.21168261 1412.21171839 1251.2578125 1413.90234375 C1250.67680786 1414.23490173 1250.09580322 1414.56745972 1249.49719238 1414.91009521 C1241.25746099 1419.62404273 1232.98734408 1424.2810237 1224.6953125 1428.90234375 C1215.55085679 1433.99948973 1206.49172158 1439.22733121 1197.46386719 1444.52783203 C1189.30412754 1449.30657462 1181.06323143 1453.92911061 1172.80078125 1458.52734375 C1165.63177555 1462.52698827 1158.52438487 1466.62082419 1151.4453125 1470.77734375 C1142.29477189 1476.15013824 1133.06862875 1481.37006815 1123.79638672 1486.52954102 C1116.66902983 1490.5055001 1109.60592158 1494.57898373 1102.5703125 1498.71484375 C1092.96965746 1504.35633538 1083.26578998 1509.78946989 1073.51660156 1515.16943359 C1065.06009371 1519.84850737 1056.70190316 1524.67724078 1048.36987305 1529.57373047 C1040.16777296 1534.3833318 1031.88717712 1539.04244195 1023.58276367 1543.67260742 C1014.45364064 1548.76380803 1005.37420582 1553.93785883 996.30664062 1559.13769531 C990.83516472 1562.27305642 985.35856892 1565.39946643 979.8828125 1568.52734375 C969.98225798 1574.18272912 969.98225798 1574.18272912 960.08665466 1579.84677124 C957.14413149 1581.53270332 954.20110778 1583.21776003 951.2578125 1584.90234375 C950.67744232 1585.23453918 950.09707214 1585.56673462 949.49911499 1585.90899658 C941.25874251 1590.62331019 932.98798897 1595.28066429 924.6953125 1599.90234375 C915.55085679 1604.99948973 906.49172158 1610.22733121 897.46386719 1615.52783203 C889.30271876 1620.30739967 881.06054389 1624.93100977 872.79638672 1629.52954102 C865.66902983 1633.5055001 858.60592158 1637.57898373 851.5703125 1641.71484375 C841.96965746 1647.35633538 832.26578998 1652.78946989 822.51660156 1658.16943359 C814.05779438 1662.84977962 805.6969461 1667.67920709 797.36328125 1672.578125 C789.23720016 1677.34428088 781.02771461 1681.94932186 772.79589844 1686.52978516 C765.6687281 1690.50570428 758.60576472 1694.57907593 751.5703125 1698.71484375 C741.96825014 1704.35716234 732.26310292 1709.79137192 722.51220703 1715.17163086 C715.09615398 1719.27461397 707.75016075 1723.47980354 700.4453125 1727.77734375 C692.01308644 1732.73813544 683.51110915 1737.55098788 674.9453125 1742.27734375 C665.33945094 1747.57814348 655.82856332 1753.01513565 646.36987305 1758.57373047 C638.16777296 1763.3833318 629.88717712 1768.04244195 621.58276367 1772.67260742 C612.45364064 1777.76380803 603.37420582 1782.93785883 594.30664062 1788.13769531 C589.42843023 1790.93309301 584.54596996 1793.7210525 579.66397095 1796.50982666 C576.67294922 1798.21849875 573.68219189 1799.92763349 570.69140625 1801.63671875 C569.48030724 1802.32877823 568.26920698 1803.02083552 567.05810547 1803.71289062 C566.45987976 1804.05473389 565.86165405 1804.39657715 565.24530029 1804.7487793 C559.91455077 1807.79492188 559.91455077 1807.79492188 558.16363525 1808.79544067 C557.00001534 1809.46036925 555.83640043 1810.12530658 554.67279053 1810.79025269 C551.76651574 1812.451032 548.86015371 1814.11165828 545.95361328 1815.77197266 C540.6736953 1818.78823896 535.39444234 1821.80564098 530.11837769 1824.8286438 C527.16528234 1826.52062215 524.21168261 1828.21171839 521.2578125 1829.90234375 C520.67680786 1830.23490173 520.09580322 1830.56745972 519.49719238 1830.91009521 C511.25746099 1835.62404273 502.98734408 1840.2810237 494.6953125 1844.90234375 C485.55085679 1849.99948973 476.49172158 1855.22733121 467.46386719 1860.52783203 C459.30271876 1865.30739967 451.06054389 1869.93100977 442.79638672 1874.52954102 C435.66902983 1878.5055001 428.60592158 1882.57898373 421.5703125 1886.71484375 C411.96825014 1892.35716234 402.26310292 1897.79137192 392.51220703 1903.17163086 C385.09615398 1907.27461397 377.75016075 1911.47980354 370.4453125 1915.77734375 C362.01308644 1920.73813544 353.51110915 1925.55098788 344.9453125 1930.27734375 C335.33945094 1935.57814348 325.82856332 1941.01513565 316.36987305 1946.57373047 C308.16777296 1951.3833318 299.88717712 1956.04244195 291.58276367 1960.67260742 C282.45364064 1965.76380803 273.37420582 1970.93785883 264.30664062 1976.13769531 C259.42843023 1978.93309301 254.54596996 1981.7210525 249.66397095 1984.50982666 C246.67294922 1986.21849875 243.68219189 1987.92763349 240.69140625 1989.63671875 C239.48030724 1990.32877823 238.26920698 1991.02083552 237.05810547 1991.71289062 C236.45987976 1992.05473389 235.86165405 1992.39657715 235.24530029 1992.7487793 C229.91455067 1995.79492194 229.91455067 1995.79492194 228.16363525 1996.79544067 C227.00001534 1997.46036925 225.83640043 1998.12530658 224.67279053 1998.79025269 C221.76651574 2000.451032 218.86015371 2002.11165828 215.95361328 2003.77197266 C210.6736953 2006.78823896 205.39444234 2009.80564098 200.11837769 2012.8286438 C197.16528234 2014.52062215 194.21168261 2016.21171839 191.2578125 2017.90234375 C190.67680786 2018.23490173 190.09580322 2018.56745972 189.49719238 2018.91009521 C181.25746099 2023.62404273 172.98734408 2028.2810237 164.6953125 2032.90234375 C155.55085679 2037.99948973 146.49172158 2043.22733121 137.46386719 2048.52783203 C129.30271876 2053.30739967 121.06054389 2057.93100977 112.79638672 2062.52954102 C105.66902983 2066.5055001 98.60592158 2070.57898373 91.5703125 2074.71484375 C81.96825014 2080.35716234 72.26310292 2085.79137192 62.51220703 2091.17163086 C55.09615065 2095.27461581 47.75022475 2099.47990845 40.4453125 2103.77734375 C30.82073635 2109.43791719 21.09961534 2114.90421071 11.32275391 2120.29711914 C5.16150576 2123.69892886 -0.96314484 2127.15115678 -7.04785156 2130.68798828 C-23.60429639 2140.29318364 -40.37987203 2147.75448815 -58.5546875 2153.77734375 C-59.47707214 2154.09384384 -60.39945679 2154.41034393 -61.34979248 2154.73643494 C-83.32870721 2162.04695767 -105.22245751 2161.86298239 -128.14453125 2161.68994141 C-133.48322552 2161.65005788 -138.81947699 2161.67374972 -144.15808773 2161.71404171 C-167.22250478 2161.86161806 -188.5515498 2161.39960857 -210.5546875 2153.77734375 C-211.63752518 2153.41008682 -212.72036285 2153.0428299 -213.83601379 2152.66444397 C-259.4356192 2137.06161592 -301.96635591 2109.27782341 -331.5546875 2070.77734375 C-331.97572754 2070.23271484 -332.39676758 2069.68808594 -332.83056641 2069.12695312 C-340.50819097 2059.13679104 -347.24927833 2048.6804471 -353.5546875 2037.77734375 C-353.95429688 2037.08946777 -354.35390625 2036.4015918 -354.765625 2035.69287109 C-378.60800455 1994.13872384 -384.90598453 1948.14170895 -384.81207603 1901.0256125 C-384.8070112 1897.33897862 -384.81376198 1893.65236078 -384.81887969 1889.96572953 C-384.82627259 1883.50161732 -384.82635176 1877.03753813 -384.82149021 1870.573424 C-384.81424838 1860.8963785 -384.81863494 1851.21936117 -384.82517156 1841.5423164 C-384.83597647 1825.04432761 -384.83733628 1808.54635025 -384.83347321 1792.04835892 C-384.82959194 1775.33900153 -384.83005988 1758.62965266 -384.835783 1741.92029572 C-384.83614183 1740.86329051 -384.83650066 1739.8062853 -384.83687036 1738.71724963 C-384.83834533 1734.41193594 -384.83984974 1730.10662226 -384.84139182 1725.80130859 C-384.85701297 1682.13714239 -384.85970731 1638.47298203 -384.85723576 1594.80881353 C-384.8568973 1588.77909833 -384.85657521 1582.74938312 -384.85627007 1576.71966791 C-384.85620903 1575.52197066 -384.85614799 1574.32427341 -384.85608509 1573.0902823 C-384.85481244 1546.53108096 -384.85741596 1519.97188042 -384.86079614 1493.41267932 C-384.86156688 1487.34575301 -384.86231162 1481.27882669 -384.86306116 1475.21190038 C-384.86336285 1472.77694705 -384.86366473 1470.34199372 -384.8639668 1467.90704039 C-384.86411648 1466.70006655 -384.86426616 1465.49309272 -384.86442037 1464.24954393 C-384.86472391 1461.80814166 -384.86502859 1459.3667394 -384.86533442 1456.92533713 C-384.87400574 1387.66514027 -384.87865253 1318.40494412 -384.87438679 1249.14474678 C-384.87430873 1247.8626438 -384.87423067 1246.58054082 -384.87415025 1245.25958623 C-384.87327747 1230.96319263 -384.87234821 1216.66679904 -384.87139962 1202.37040545 C-384.87131411 1201.07968268 -384.8712286 1199.78895992 -384.8711405 1198.45912434 C-384.87042975 1187.73503133 -384.87042975 1187.73503133 -384.87009827 1182.79979657 C-384.86456196 1100.23290034 -384.87210689 1017.6660153 -384.89086914 935.09912109 C-384.89559143 914.29202336 -384.90027198 893.48492563 -384.904706 872.67782784 C-384.90497932 871.39661638 -384.90525265 870.11540492 -384.90553425 868.79536887 C-384.91390638 829.30356577 -384.91858528 789.81176361 -384.91941357 750.31995964 C-384.91943993 749.07998094 -384.9194663 747.84000225 -384.91949346 746.56244844 C-384.92003426 719.34133747 -384.91966176 692.12022658 -384.91845375 664.89911564 C-384.91802813 655.15893037 -384.91766301 645.4187451 -384.91732431 635.67855983 C-384.91723901 633.25550643 -384.91715007 630.83245303 -384.91705749 628.40939963 C-384.91560932 589.81632482 -384.92273098 551.22325762 -384.93406145 512.63018464 C-384.94571484 472.67855762 -384.94627144 432.72694417 -384.93421803 392.77531709 C-384.93296622 388.48260937 -384.93176274 384.18990165 -384.93059731 379.89719391 C-384.93030701 378.84370869 -384.93001672 377.79022346 -384.92971763 376.70481444 C-384.92539715 360.04342961 -384.93111447 343.38206409 -384.9410375 326.72068229 C-384.95058935 310.3260923 -384.94938 293.93153203 -384.93683127 277.53694375 C-384.92979847 267.93376505 -384.9308719 258.33067196 -384.94417966 248.72749943 C-384.9522078 242.33662336 -384.94920824 235.94581162 -384.93753002 229.55494139 C-384.93122527 225.94061594 -384.92931272 222.32645867 -384.94109723 218.71214307 C-385.13725294 154.08916382 -365.75408508 91.33426387 -320.5546875 43.77734375 C-319.31800957 42.36722928 -318.08824277 40.95100775 -316.8671875 39.52734375 C-311.24167668 33.07377877 -305.10861854 27.277219 -298.5546875 21.77734375 C-297.8131543 21.14916748 -297.8131543 21.14916748 -297.05664062 20.50830078 C-221.5666929 -43.06572475 -110.61819015 -56.48756401 0 0 Z " fill="#4284F3" transform="translate(384.5546875,38.22265625)"/>
<path d="M0 0 C3.95196011 1.27730275 7.38876576 2.63348495 10.95703125 4.765625 C11.89160156 5.31863281 12.82617188 5.87164063 13.7890625 6.44140625 C14.78679687 7.03824219 15.78453125 7.63507812 16.8125 8.25 C25.31634624 13.27736565 33.86424302 18.20273473 42.5 23 C51.72974156 28.13552839 60.87238792 33.40213603 69.98046875 38.75 C77.10528525 42.92244156 84.28553837 46.98481022 91.5 51 C100.65723315 56.09830924 109.7369317 61.31308055 118.77832031 66.61376953 C126.4079881 71.08278735 134.06977486 75.49361631 141.75 79.875 C142.33431793 80.20836365 142.91863586 80.54172729 143.5206604 80.88519287 C146.4919198 82.5800349 149.46363272 84.27407984 152.43554688 85.96777344 C157.71093295 88.97470744 162.98234438 91.98859617 168.25402832 95.00201416 C171.16918658 96.6682993 174.08460663 98.33412627 177 100 C178.16666792 100.66666448 179.33333459 101.33333114 180.5 102 C181.0775 102.33 181.655 102.66 182.25 103 C187.50000007 106.00000004 187.50000007 106.00000004 189.24996948 106.99998474 C190.41673537 107.66670665 191.58350376 108.33342418 192.75027466 109.00013733 C195.66544378 110.66592284 198.58056947 112.33178427 201.49560547 113.99780273 C206.76343195 117.00840313 212.03157559 120.01844147 217.30133057 123.02566528 C230.29103355 130.43839663 243.26572044 137.87611088 256.21582031 145.35791016 C267.611459 151.93788357 279.03889357 158.46191372 290.46777344 164.98388672 C295.7304792 167.98733176 300.99117186 170.99429965 306.25201416 174.00100708 C309.16792672 175.66748282 312.08396998 177.33372982 315 179 C316.16666729 179.66666557 317.33333396 180.33333224 318.5 181 C319.0775 181.33 319.655 181.66 320.25 182 C353.49999986 200.99999992 353.49999986 200.99999992 355.24996948 201.99998474 C356.41673537 202.66670665 357.58350376 203.33342418 358.75027466 204.00013733 C361.66544378 205.66592284 364.58056947 207.33178427 367.49560547 208.99780273 C372.76343195 212.00840313 378.03157559 215.01844147 383.30133057 218.02566528 C396.2842177 225.43450708 409.25737668 232.85937708 422.19384766 240.34912109 C427.85192945 243.6215031 433.52335055 246.86739821 439.21875 250.07421875 C461.08761905 262.40304086 481.9771547 275.2898826 500.34765625 292.53515625 C502.45711064 294.49548868 504.58945942 296.36054683 506.8125 298.1875 C509.9168954 300.81314527 512.52003031 303.74026759 515.14453125 306.83984375 C516.37966556 308.27780012 517.64850174 309.68748982 518.94921875 311.06640625 C531.84025069 324.76759547 542.11940728 340.47695671 551 357 C551.36818848 357.68126953 551.73637695 358.36253906 552.11572266 359.06445312 C565.40541914 383.91759349 573.21913608 410.3177949 578 438 C578.13422363 438.75861328 578.26844727 439.51722656 578.40673828 440.29882812 C585.77136217 484.01009792 577.63515464 531.73207395 560 572 C559.68192383 572.72654785 559.36384766 573.4530957 559.03613281 574.20166016 C548.4090208 598.15555413 534.04173931 619.97057423 516 639 C514.93206317 640.26626796 513.86927295 641.53690032 512.8125 642.8125 C502.34284781 654.770844 489.84513003 664.73430529 477 674 C476.40316406 674.43231934 475.80632812 674.86463867 475.19140625 675.31005859 C465.13571301 682.50694789 454.34426572 688.38426796 443.53515625 694.359375 C437.30079688 697.81316023 431.14318882 701.38713427 425 705 C415.85129522 710.37267982 406.62595073 715.59077524 397.35546875 720.75 C390.18646043 724.74964599 383.07913415 728.84358252 376 733 C366.775649 738.41450699 357.47985528 743.68630694 348.13793945 748.89501953 C339.00862258 753.98624609 329.92905085 759.16042475 320.86132812 764.36035156 C315.98311773 767.15574926 311.10065746 769.94370875 306.21865845 772.73248291 C303.22763672 774.441155 300.23687939 776.15028974 297.24609375 777.859375 C296.03499474 778.55143448 294.82389448 779.24349177 293.61279297 779.93554688 C293.01456726 780.27739014 292.41634155 780.6192334 291.79998779 780.97143555 C258.49999998 800.00000001 258.49999998 800.00000001 256.75004578 800.99996948 C255.58322151 801.66672911 254.41640226 802.3334975 253.24958801 803.00027466 C250.33537354 804.66559088 247.42107258 806.33075537 244.5065918 807.99560547 C239.22724336 811.01154606 233.94856056 814.02862341 228.67306519 817.05130005 C225.71996984 818.7432784 222.76637011 820.43437464 219.8125 822.125 C219.23149536 822.45755798 218.65049072 822.79011597 218.05187988 823.13275146 C209.81214849 827.84669898 201.54203158 832.50367995 193.25 837.125 C184.10554429 842.22214598 175.04640908 847.44998746 166.01855469 852.75048828 C157.85881504 857.52923087 149.61791893 862.15176686 141.35546875 866.75 C134.18646305 870.74964452 127.07907237 874.84348044 120 879 C110.84945939 884.37279449 101.62331625 889.5927244 92.35107422 894.75219727 C85.22371733 898.72815635 78.16060908 902.80163998 71.125 906.9375 C61.52434496 912.57899163 51.82047748 918.01212614 42.07128906 923.39208984 C33.61478121 928.07116362 25.25659066 932.89989703 16.92456055 937.79638672 C8.72246046 942.60598805 0.44186462 947.2650982 -7.86254883 951.89526367 C-16.99167186 956.98646428 -26.07110668 962.16051508 -35.13867188 967.36035156 C-40.61014778 970.49571267 -46.08674358 973.62212268 -51.5625 976.75 C-61.46305452 982.40538537 -61.46305452 982.40538537 -71.35865784 988.06942749 C-74.30118101 989.75535957 -77.24420472 991.44041628 -80.1875 993.125 C-80.76787018 993.45719543 -81.34824036 993.78939087 -81.94619751 994.13165283 C-90.18656999 998.84596644 -98.45732353 1003.50332054 -106.75 1008.125 C-115.89445571 1013.22214598 -124.95359092 1018.44998746 -133.98144531 1023.75048828 C-142.14259374 1028.53005592 -150.38476861 1033.15366602 -158.64892578 1037.75219727 C-165.77628267 1041.72815635 -172.83939092 1045.80163998 -179.875 1049.9375 C-189.47565504 1055.57899163 -199.17952252 1061.01212614 -208.92871094 1066.39208984 C-217.38751812 1071.07243587 -225.7483664 1075.90186334 -234.08203125 1080.80078125 C-242.20811234 1085.56693713 -250.41759789 1090.17197811 -258.64941406 1094.75244141 C-265.7765844 1098.72836053 -272.83954778 1102.80173218 -279.875 1106.9375 C-289.47706236 1112.57981859 -299.18220958 1118.01402817 -308.93310547 1123.39428711 C-316.34915852 1127.49727022 -323.69515175 1131.70245979 -331 1136 C-339.43222606 1140.96079169 -347.93420335 1145.77364413 -356.5 1150.5 C-366.10586156 1155.80079973 -375.61674918 1161.2377919 -385.07543945 1166.79638672 C-393.27753954 1171.60598805 -401.55813538 1176.2650982 -409.86254883 1180.89526367 C-418.99167186 1185.98646428 -428.07110668 1191.16051508 -437.13867188 1196.36035156 C-442.01688227 1199.15574926 -446.89934254 1201.94370875 -451.78134155 1204.73248291 C-454.77236328 1206.441155 -457.76312061 1208.15028974 -460.75390625 1209.859375 C-461.96500526 1210.55143448 -463.17610552 1211.24349177 -464.38720703 1211.93554688 C-464.98543274 1212.27739014 -465.58365845 1212.6192334 -466.20001221 1212.97143555 C-471.53076169 1216.01757811 -471.53076169 1216.01757811 -473.28167725 1217.01809692 C-474.44529716 1217.6830255 -475.60891207 1218.34796283 -476.77252197 1219.01290894 C-479.67879676 1220.67368825 -482.58515879 1222.33431453 -485.49169922 1223.99462891 C-490.7716172 1227.01089521 -496.05087016 1230.02829723 -501.32693481 1233.05130005 C-504.28003016 1234.7432784 -507.23362989 1236.43437464 -510.1875 1238.125 C-510.76850464 1238.45755798 -511.34950928 1238.79011597 -511.94812012 1239.13275146 C-520.18785151 1243.84669898 -528.45796842 1248.50367995 -536.75 1253.125 C-545.89445571 1258.22214598 -554.95359092 1263.44998746 -563.98144531 1268.75048828 C-572.14259374 1273.53005592 -580.38476861 1278.15366602 -588.64892578 1282.75219727 C-595.77628267 1286.72815635 -602.83939092 1290.80163998 -609.875 1294.9375 C-619.47706236 1300.57981859 -629.18220958 1306.01402817 -638.93310547 1311.39428711 C-646.34915852 1315.49727022 -653.69515175 1319.70245979 -661 1324 C-669.43222606 1328.96079169 -677.93420335 1333.77364413 -686.5 1338.5 C-696.10586156 1343.80079973 -705.61674918 1349.2377919 -715.07543945 1354.79638672 C-723.27753954 1359.60598805 -731.55813538 1364.2650982 -739.86254883 1368.89526367 C-748.99167186 1373.98646428 -758.07110668 1379.16051508 -767.13867188 1384.36035156 C-772.01688227 1387.15574926 -776.89934254 1389.94370875 -781.78134155 1392.73248291 C-784.77236328 1394.441155 -787.76312061 1396.15028974 -790.75390625 1397.859375 C-791.96500526 1398.55143448 -793.17610552 1399.24349177 -794.38720703 1399.93554688 C-794.98543274 1400.27739014 -795.58365845 1400.6192334 -796.20001221 1400.97143555 C-801.5307616 1404.01757806 -801.5307616 1404.01757806 -803.28167725 1405.01809692 C-804.44529716 1405.6830255 -805.60891207 1406.34796283 -806.77252197 1407.01290894 C-809.67879676 1408.67368825 -812.58515879 1410.33431453 -815.49169922 1411.99462891 C-820.7716172 1415.01089521 -826.05087016 1418.02829723 -831.32693481 1421.05130005 C-834.28003016 1422.7432784 -837.23362989 1424.43437464 -840.1875 1426.125 C-840.76850464 1426.45755798 -841.34950928 1426.79011597 -841.94812012 1427.13275146 C-850.18785151 1431.84669898 -858.45796842 1436.50367995 -866.75 1441.125 C-875.89445571 1446.22214598 -884.95359092 1451.44998746 -893.98144531 1456.75048828 C-902.14259374 1461.53005592 -910.38476861 1466.15366602 -918.64892578 1470.75219727 C-925.77628267 1474.72815635 -932.83939092 1478.80163998 -939.875 1482.9375 C-949.47706236 1488.57981859 -959.18220958 1494.01402817 -968.93310547 1499.39428711 C-976.34916185 1503.49727206 -983.69508775 1507.7025647 -991 1512 C-1000.62457615 1517.66057344 -1010.34569716 1523.12686696 -1020.12255859 1528.51977539 C-1026.28380674 1531.92158511 -1032.40845734 1535.37381303 -1038.49316406 1538.91064453 C-1055.04960889 1548.51583989 -1071.82518453 1555.9771444 -1090 1562 C-1090.92238464 1562.31650009 -1091.84476929 1562.63300018 -1092.79510498 1562.95909119 C-1114.77401971 1570.26961392 -1136.66777001 1570.08563864 -1159.58984375 1569.91259766 C-1164.92853802 1569.87271413 -1170.26478949 1569.89640597 -1175.60340023 1569.93669796 C-1198.66781728 1570.08427431 -1219.9968623 1569.62226482 -1242 1562 C-1243.08283768 1561.63274307 -1244.16567535 1561.26548615 -1245.28132629 1560.88710022 C-1290.8809317 1545.28427217 -1333.41166841 1517.50047966 -1363 1479 C-1363.63156006 1478.18305664 -1363.63156006 1478.18305664 -1364.27587891 1477.34960938 C-1371.95350347 1467.35944729 -1378.69459083 1456.90310335 -1385 1446 C-1385.59941406 1444.96818604 -1385.59941406 1444.96818604 -1386.2109375 1443.91552734 C-1408.06491959 1405.82689664 -1408.06491959 1405.82689664 -1406.80444336 1390.64453125 C-1405.76303714 1387.22100708 -1404.13656396 1385.66569258 -1401.58984375 1383.1640625 C-1400.68169922 1382.26429687 -1399.77355469 1381.36453125 -1398.83789062 1380.4375 C-1397.8711333 1379.49995921 -1396.9043362 1378.56245944 -1395.9375 1377.625 C-1394.54241211 1376.24441406 -1394.54241211 1376.24441406 -1393.11914062 1374.8359375 C-1389.25864157 1371.03783583 -1385.37923039 1367.31194892 -1381.27418518 1363.77914429 C-1377.28740054 1360.29738742 -1373.51887375 1356.64792034 -1369.79296875 1352.890625 C-1368.78636703 1351.88183289 -1368.78636703 1351.88183289 -1367.75942993 1350.85266113 C-1366.3168177 1349.40627216 -1364.87536071 1347.95873019 -1363.43496704 1346.51013184 C-1361.14940713 1344.21169248 -1358.86063672 1341.91649291 -1356.57104492 1339.62207031 C-1351.71120539 1334.75085823 -1346.85531035 1329.87572595 -1342 1325 C-1336.36926584 1319.34558974 -1330.73688564 1313.69283965 -1325.10025024 1308.04431152 C-1322.8560172 1305.79364201 -1320.61484077 1303.53995969 -1318.3737793 1301.28613281 C-1316.98501306 1299.8937308 -1315.5961044 1298.50147082 -1314.20703125 1297.109375 C-1313.59381012 1296.49098755 -1312.98058899 1295.8726001 -1312.3487854 1295.23547363 C-1308.68627074 1291.57252019 -1304.89026304 1288.13462059 -1300.97285461 1284.74700928 C-1297.78377389 1281.9230031 -1294.79142382 1278.91434173 -1291.79296875 1275.890625 C-1290.78636703 1274.88183289 -1290.78636703 1274.88183289 -1289.75942993 1273.85266113 C-1288.3168177 1272.40627216 -1286.87536071 1270.95873019 -1285.43496704 1269.51013184 C-1283.14940713 1267.21169248 -1280.86063672 1264.91649291 -1278.57104492 1262.62207031 C-1273.71120539 1257.75085823 -1268.85531035 1252.87572595 -1264 1248 C-1258.36926584 1242.34558974 -1252.73688564 1236.69283965 -1247.10025024 1231.04431152 C-1244.8560172 1228.79364201 -1242.61484077 1226.53995969 -1240.3737793 1224.28613281 C-1238.98501306 1222.8937308 -1237.5961044 1221.50147082 -1236.20703125 1220.109375 C-1235.28719955 1219.18179382 -1235.28719955 1219.18179382 -1234.3487854 1218.23547363 C-1230.68627074 1214.57252019 -1226.89026304 1211.13462059 -1222.97285461 1207.74700928 C-1219.78377389 1204.9230031 -1216.79142382 1201.91434173 -1213.79296875 1198.890625 C-1212.78636703 1197.88183289 -1212.78636703 1197.88183289 -1211.75942993 1196.85266113 C-1210.3168177 1195.40627216 -1208.87536071 1193.95873019 -1207.43496704 1192.51013184 C-1205.14940713 1190.21169248 -1202.86063672 1187.91649291 -1200.57104492 1185.62207031 C-1195.71120539 1180.75085823 -1190.85531035 1175.87572595 -1186 1171 C-1180.36926584 1165.34558974 -1174.73688564 1159.69283965 -1169.10025024 1154.04431152 C-1166.8560172 1151.79364201 -1164.61484077 1149.53995969 -1162.3737793 1147.28613281 C-1160.98501306 1145.8937308 -1159.5961044 1144.50147082 -1158.20703125 1143.109375 C-1157.28719955 1142.18179382 -1157.28719955 1142.18179382 -1156.3487854 1141.23547363 C-1152.68627074 1137.57252019 -1148.89026304 1134.13462059 -1144.97285461 1130.74700928 C-1141.78377389 1127.9230031 -1138.79142382 1124.91434173 -1135.79296875 1121.890625 C-1135.12190094 1121.21809692 -1134.45083313 1120.54556885 -1133.75942993 1119.85266113 C-1132.3168177 1118.40627216 -1130.87536071 1116.95873019 -1129.43496704 1115.51013184 C-1127.14940713 1113.21169248 -1124.86063672 1110.91649291 -1122.57104492 1108.62207031 C-1117.71120539 1103.75085823 -1112.85531035 1098.87572595 -1108 1094 C-1102.36926584 1088.34558974 -1096.73688564 1082.69283965 -1091.10025024 1077.04431152 C-1088.8560172 1074.79364201 -1086.61484077 1072.53995969 -1084.3737793 1070.28613281 C-1082.98501306 1068.8937308 -1081.5961044 1067.50147082 -1080.20703125 1066.109375 C-1079.59381012 1065.49098755 -1078.98058899 1064.8726001 -1078.3487854 1064.23547363 C-1074.68627074 1060.57252019 -1070.89026304 1057.13462059 -1066.97285461 1053.74700928 C-1063.78377389 1050.9230031 -1060.79142382 1047.91434173 -1057.79296875 1044.890625 C-1057.12190094 1044.21809692 -1056.45083313 1043.54556885 -1055.75942993 1042.85266113 C-1054.3168177 1041.40627216 -1052.87536071 1039.95873019 -1051.43496704 1038.51013184 C-1049.14940713 1036.21169248 -1046.86063672 1033.91649291 -1044.57104492 1031.62207031 C-1039.71120539 1026.75085823 -1034.85531035 1021.87572595 -1030 1017 C-1024.36926584 1011.34558974 -1018.73688564 1005.69283965 -1013.10025024 1000.04431152 C-1010.8560172 997.79364201 -1008.61484077 995.53995969 -1006.3737793 993.28613281 C-1004.98501306 991.8937308 -1003.5961044 990.50147082 -1002.20703125 989.109375 C-1001.59381012 988.49098755 -1000.98058899 987.8726001 -1000.3487854 987.23547363 C-996.68627074 983.57252019 -992.89026304 980.13462059 -988.97285461 976.74700928 C-985.78377389 973.9230031 -982.79142382 970.91434173 -979.79296875 967.890625 C-979.12190094 967.21809692 -978.45083313 966.54556885 -977.75942993 965.85266113 C-976.3168177 964.40627216 -974.87536071 962.95873019 -973.43496704 961.51013184 C-971.14940713 959.21169248 -968.86063672 956.91649291 -966.57104492 954.62207031 C-961.71120539 949.75085823 -956.85531035 944.87572595 -952 940 C-946.36926584 934.34558974 -940.73688564 928.69283965 -935.10025024 923.04431152 C-932.8560172 920.79364201 -930.61484077 918.53995969 -928.3737793 916.28613281 C-926.98501306 914.8937308 -925.5961044 913.50147082 -924.20703125 912.109375 C-923.59381012 911.49098755 -922.98058899 910.8726001 -922.3487854 910.23547363 C-918.68627074 906.57252019 -914.89026304 903.13462059 -910.97285461 899.74700928 C-907.78377389 896.9230031 -904.79142382 893.91434173 -901.79296875 890.890625 C-901.12190094 890.21809692 -900.45083313 889.54556885 -899.75942993 888.85266113 C-898.3168177 887.40627216 -896.87536071 885.95873019 -895.43496704 884.51013184 C-893.14940713 882.21169248 -890.86063672 879.91649291 -888.57104492 877.62207031 C-883.71120539 872.75085823 -878.85531035 867.87572595 -874 863 C-868.36926584 857.34558974 -862.73688564 851.69283965 -857.10025024 846.04431152 C-854.8560172 843.79364201 -852.61484077 841.53995969 -850.3737793 839.28613281 C-848.98501306 837.8937308 -847.5961044 836.50147082 -846.20703125 835.109375 C-845.59381012 834.49098755 -844.98058899 833.8726001 -844.3487854 833.23547363 C-840.68627074 829.57252019 -836.89026304 826.13462059 -832.97285461 822.74700928 C-829.78377389 819.9230031 -826.79142382 816.91434173 -823.79296875 813.890625 C-823.12190094 813.21809692 -822.45083313 812.54556885 -821.75942993 811.85266113 C-820.3168177 810.40627216 -818.87536071 808.95873019 -817.43496704 807.51013184 C-815.14940713 805.21169248 -812.86063672 802.91649291 -810.57104492 800.62207031 C-805.71120539 795.75085823 -800.85531035 790.87572595 -796 786 C-790.36926584 780.34558974 -784.73688564 774.69283965 -779.10025024 769.04431152 C-776.8560172 766.79364201 -774.61484077 764.53995969 -772.3737793 762.28613281 C-770.98501306 760.8937308 -769.5961044 759.50147082 -768.20703125 758.109375 C-767.59381012 757.49098755 -766.98058899 756.8726001 -766.3487854 756.23547363 C-762.68627074 752.57252019 -758.89026304 749.13462059 -754.97285461 745.74700928 C-751.78377389 742.9230031 -748.79142382 739.91434173 -745.79296875 736.890625 C-745.12190094 736.21809692 -744.45083313 735.54556885 -743.75942993 734.85266113 C-742.3168177 733.40627216 -740.87536071 731.95873019 -739.43496704 730.51013184 C-737.14940713 728.21169248 -734.86063672 725.91649291 -732.57104492 723.62207031 C-727.71120539 718.75085823 -722.85531035 713.87572595 -718 709 C-712.36926584 703.34558974 -706.73688564 697.69283965 -701.10025024 692.04431152 C-698.8560172 689.79364201 -696.61484077 687.53995969 -694.3737793 685.28613281 C-692.98501306 683.8937308 -691.5961044 682.50147082 -690.20703125 681.109375 C-689.59381012 680.49098755 -688.98058899 679.8726001 -688.3487854 679.23547363 C-684.68627074 675.57252019 -680.89026304 672.13462059 -676.97285461 668.74700928 C-673.78377389 665.9230031 -670.79142382 662.91434173 -667.79296875 659.890625 C-667.12190094 659.21809692 -666.45083313 658.54556885 -665.75942993 657.85266113 C-664.3168177 656.40627216 -662.87536071 654.95873019 -661.43496704 653.51013184 C-659.14940713 651.21169248 -656.86063672 648.91649291 -654.57104492 646.62207031 C-649.71120539 641.75085823 -644.85531035 636.87572595 -640 632 C-634.36926584 626.34558974 -628.73688564 620.69283965 -623.10025024 615.04431152 C-620.8560172 612.79364201 -618.61484077 610.53995969 -616.3737793 608.28613281 C-614.98501306 606.8937308 -613.5961044 605.50147082 -612.20703125 604.109375 C-611.59381012 603.49098755 -610.98058899 602.8726001 -610.3487854 602.23547363 C-606.68627074 598.57252019 -602.89026304 595.13462059 -598.97285461 591.74700928 C-595.78377389 588.9230031 -592.79142382 585.91434173 -589.79296875 582.890625 C-589.12190094 582.21809692 -588.45083313 581.54556885 -587.75942993 580.85266113 C-586.3168177 579.40627216 -584.87536071 577.95873019 -583.43496704 576.51013184 C-581.14940713 574.21169248 -578.86063672 571.91649291 -576.57104492 569.62207031 C-571.71120539 564.75085823 -566.85531035 559.87572595 -562 555 C-556.36926584 549.34558974 -550.73688564 543.69283965 -545.10025024 538.04431152 C-542.8560172 535.79364201 -540.61484077 533.53995969 -538.3737793 531.28613281 C-536.98501306 529.8937308 -535.5961044 528.50147082 -534.20703125 527.109375 C-533.59381012 526.49098755 -532.98058899 525.8726001 -532.3487854 525.23547363 C-528.68082284 521.56707164 -524.87938517 518.12283395 -520.95605469 514.73020935 C-517.86827596 511.99894439 -514.96955585 509.0928261 -512.06835938 506.16601562 C-511.42655228 505.52274826 -510.78474518 504.8794809 -510.12348938 504.21672058 C-508.74471885 502.83417528 -507.36710349 501.45047714 -505.99055481 500.0657196 C-503.80581418 497.86809039 -501.61785574 495.67370966 -499.42907715 493.48010254 C-494.78322435 488.82288161 -490.14131864 484.16173905 -485.5 479.5 C-480.11708742 474.09340422 -474.73252443 468.68847366 -469.34370422 463.2877655 C-467.19918491 461.13681369 -465.05772516 458.98284828 -462.91638184 456.82873535 C-461.58828469 455.49700216 -460.26004496 454.16541115 -458.93164062 452.83398438 C-458.34647171 452.24364914 -457.7613028 451.6533139 -457.15840149 451.04508972 C-454.20045943 448.08677741 -451.18208686 445.25397667 -448.01721191 442.51721191 C-444.10581718 439.13284326 -440.43381438 435.56214435 -436.79296875 431.890625 C-435.78636703 430.88183289 -435.78636703 430.88183289 -434.75942993 429.85266113 C-433.3168177 428.40627216 -431.87536071 426.95873019 -430.43496704 425.51013184 C-428.14940713 423.21169248 -425.86063672 420.91649291 -423.57104492 418.62207031 C-418.71120539 413.75085823 -413.85531035 408.87572595 -409 404 C-403.36926584 398.34558974 -397.73688564 392.69283965 -392.10025024 387.04431152 C-389.8560172 384.79364201 -387.61484077 382.53995969 -385.3737793 380.28613281 C-383.98501306 378.8937308 -382.5961044 377.50147082 -381.20703125 376.109375 C-380.28719955 375.18179382 -380.28719955 375.18179382 -379.3487854 374.23547363 C-375.68627074 370.57252019 -371.89026304 367.13462059 -367.97285461 363.74700928 C-364.78377389 360.9230031 -361.79142382 357.91434173 -358.79296875 354.890625 C-358.12190094 354.21809692 -357.45083313 353.54556885 -356.75942993 352.85266113 C-355.3168177 351.40627216 -353.87536071 349.95873019 -352.43496704 348.51013184 C-350.14940713 346.21169248 -347.86063672 343.91649291 -345.57104492 341.62207031 C-340.71120539 336.75085823 -335.85531035 331.87572595 -331 327 C-325.36926584 321.34558974 -319.73688564 315.69283965 -314.10025024 310.04431152 C-311.8560172 307.79364201 -309.61484077 305.53995969 -307.3737793 303.28613281 C-305.98501306 301.8937308 -304.5961044 300.50147082 -303.20703125 299.109375 C-302.28719955 298.18179382 -302.28719955 298.18179382 -301.3487854 297.23547363 C-297.68627074 293.57252019 -293.89026304 290.13462059 -289.97285461 286.74700928 C-286.78377389 283.9230031 -283.79142382 280.91434173 -280.79296875 277.890625 C-280.12190094 277.21809692 -279.45083313 276.54556885 -278.75942993 275.85266113 C-277.3168177 274.40627216 -275.87536071 272.95873019 -274.43496704 271.51013184 C-272.14940713 269.21169248 -269.86063672 266.91649291 -267.57104492 264.62207031 C-262.71120539 259.75085823 -257.85531035 254.87572595 -253 250 C-247.36926584 244.34558974 -241.73688564 238.69283965 -236.10025024 233.04431152 C-233.8560172 230.79364201 -231.61484077 228.53995969 -229.3737793 226.28613281 C-227.98501306 224.8937308 -226.5961044 223.50147082 -225.20703125 222.109375 C-224.28719955 221.18179382 -224.28719955 221.18179382 -223.3487854 220.23547363 C-219.68627074 216.57252019 -215.89026304 213.13462059 -211.97285461 209.74700928 C-208.78377389 206.9230031 -205.79142382 203.91434173 -202.79296875 200.890625 C-202.12190094 200.21809692 -201.45083313 199.54556885 -200.75942993 198.85266113 C-199.3168177 197.40627216 -197.87536071 195.95873019 -196.43496704 194.51013184 C-194.14940713 192.21169248 -191.86063672 189.91649291 -189.57104492 187.62207031 C-184.71120539 182.75085823 -179.85531035 177.87572595 -175 173 C-169.36926584 167.34558974 -163.73688564 161.69283965 -158.10025024 156.04431152 C-155.8560172 153.79364201 -153.61484077 151.53995969 -151.3737793 149.28613281 C-149.98501306 147.8937308 -148.5961044 146.50147082 -147.20703125 145.109375 C-146.28719955 144.18179382 -146.28719955 144.18179382 -145.3487854 143.23547363 C-141.68627074 139.57252019 -137.89026304 136.13462059 -133.97285461 132.74700928 C-130.78377389 129.9230031 -127.79142382 126.91434173 -124.79296875 123.890625 C-124.12190094 123.21809692 -123.45083313 122.54556885 -122.75942993 121.85266113 C-121.3168177 120.40627216 -119.87536071 118.95873019 -118.43496704 117.51013184 C-116.14940713 115.21169248 -113.86063672 112.91649291 -111.57104492 110.62207031 C-106.71120539 105.75085823 -101.85531035 100.87572595 -97 96 C-91.36926584 90.34558974 -85.73688564 84.69283965 -80.10025024 79.04431152 C-77.8560172 76.79364201 -75.61484077 74.53995969 -73.3737793 72.28613281 C-71.98501306 70.8937308 -70.5961044 69.50147082 -69.20703125 68.109375 C-68.59381012 67.49098755 -67.98058899 66.8726001 -67.3487854 66.23547363 C-63.65964995 62.54589621 -59.83745932 59.07634373 -55.89108276 55.66425896 C-53.19879981 53.29489887 -50.66033042 50.79292454 -48.13476562 48.24829102 C-47.6069046 47.72057602 -47.07904358 47.19286102 -46.53518677 46.64915466 C-44.8231546 44.93643614 -43.11467347 43.22022375 -41.40625 41.50390625 C-40.20721046 40.30299797 -39.00794723 39.102313 -37.80847168 37.90184021 C-34.67619792 34.76577715 -31.5469409 31.62672111 -28.41833496 28.48699951 C-25.2156273 25.27399999 -22.01003092 22.06388529 -18.8046875 18.85351562 C-12.53365211 12.57180629 -6.26580477 6.28692642 0 0 Z " fill="#E94335" transform="translate(1416,630)"/>
<path d="M0 0 C6.58044265 3.88441495 13.25253935 7.59080908 19.9453125 11.27734375 C29.59911684 16.6042218 39.16098692 22.06417879 48.66796875 27.6484375 C55.3899726 31.59260664 62.15123225 35.45878578 68.9453125 39.27734375 C76.78170009 43.682386 84.56667665 48.16577448 92.3203125 52.71484375 C101.51188769 58.10548147 110.77865883 63.34541279 120.08935547 68.52709961 C128.26495243 73.08825561 136.3529271 77.7873193 144.42578125 82.52734375 C151.55059775 86.69978531 158.73085087 90.76215397 165.9453125 94.77734375 C175.10254565 99.87565299 184.1822442 105.0904243 193.22363281 110.39111328 C200.8533006 114.8601311 208.51508736 119.27096006 216.1953125 123.65234375 C217.0717894 124.15238922 217.0717894 124.15238922 217.9659729 124.66253662 C220.9372323 126.35737865 223.90894522 128.05142359 226.88085938 129.74511719 C232.15624545 132.75205119 237.42765688 135.76593992 242.69934082 138.77935791 C245.61449908 140.44564305 248.52991913 142.11147002 251.4453125 143.77734375 C252.61198042 144.44400823 253.77864709 145.11067489 254.9453125 145.77734375 C255.5228125 146.10734375 256.1003125 146.43734375 256.6953125 146.77734375 C261.9453125 149.77734375 261.9453125 149.77734375 263.69525146 150.77731323 C264.86211657 151.44409039 266.02898669 152.11085878 267.19586182 152.77761841 C270.10953341 154.44252281 273.02311828 156.10757861 275.93652344 157.77294922 C281.22216141 160.79414517 286.50845153 163.81417174 291.79792786 166.8286438 C294.76414644 168.5191345 297.7298637 170.2105031 300.6953125 171.90234375 C301.2782608 172.23490173 301.86120911 172.56745972 302.46182251 172.91009521 C310.54777219 177.52522422 318.60104021 182.19356187 326.6328125 186.90234375 C335.7209845 192.22963317 344.88587409 197.40497913 354.09057617 202.52783203 C362.26581588 207.08865475 370.35333706 211.78756001 378.42578125 216.52734375 C385.55059775 220.69978531 392.73085087 224.76215397 399.9453125 228.77734375 C409.10254565 233.87565299 418.1822442 239.0904243 427.22363281 244.39111328 C434.8533006 248.8601311 442.51508736 253.27096006 450.1953125 257.65234375 C451.0717894 258.15238922 451.0717894 258.15238922 451.9659729 258.66253662 C454.9372323 260.35737865 457.90894522 262.05142359 460.88085938 263.74511719 C466.15624545 266.75205119 471.42765688 269.76593992 476.69934082 272.77935791 C479.61449908 274.44564305 482.52991913 276.11147002 485.4453125 277.77734375 C486.61198042 278.44400823 487.77864709 279.11067489 488.9453125 279.77734375 C489.5228125 280.10734375 490.1003125 280.43734375 490.6953125 280.77734375 C495.94531248 283.77734374 495.94531248 283.77734374 497.69525146 284.77731323 C498.86211657 285.44409039 500.02898669 286.11085878 501.19586182 286.77761841 C504.10953341 288.44252281 507.02311828 290.10757861 509.93652344 291.77294922 C515.22216141 294.79414517 520.50845153 297.81417174 525.79792786 300.8286438 C528.76414644 302.5191345 531.7298637 304.2105031 534.6953125 305.90234375 C535.2782608 306.23490173 535.86120911 306.56745972 536.46182251 306.91009521 C544.54777219 311.52522422 552.60104021 316.19356187 560.6328125 320.90234375 C569.7209845 326.22963317 578.88587409 331.40497913 588.09057617 336.52783203 C596.26581588 341.08865475 604.35333706 345.78756001 612.42578125 350.52734375 C619.55059775 354.69978531 626.73085087 358.76215397 633.9453125 362.77734375 C643.10254565 367.87565299 652.1822442 373.0904243 661.22363281 378.39111328 C668.8533006 382.8601311 676.51508736 387.27096006 684.1953125 391.65234375 C685.0717894 392.15238922 685.0717894 392.15238922 685.9659729 392.66253662 C688.9372323 394.35737865 691.90894522 396.05142359 694.88085938 397.74511719 C700.15642297 400.75215238 705.4280231 403.76612312 710.69989014 406.77963257 C713.61231881 408.44442311 716.52488475 410.1089734 719.4375 411.7734375 C720.01460724 412.10324112 720.59171448 412.43304474 721.18630981 412.77284241 C724.70581629 414.78395828 728.22598062 416.79391753 731.74664307 418.80300903 C744.73634605 426.21574038 757.71103294 433.65345463 770.66113281 441.13525391 C782.0567715 447.71522732 793.48420607 454.23925747 804.91308594 460.76123047 C810.1757917 463.76467551 815.43648436 466.7716434 820.69732666 469.77835083 C823.61323922 471.44482657 826.52928248 473.11107357 829.4453125 474.77734375 C830.61197979 475.44400932 831.77864646 476.11067599 832.9453125 476.77734375 C833.5228125 477.10734375 834.1003125 477.43734375 834.6953125 477.77734375 C839.94531249 480.77734374 839.94531249 480.77734374 841.69525146 481.77731323 C842.86211657 482.44409039 844.02898669 483.11085878 845.19586182 483.77761841 C848.10953341 485.44252281 851.02311828 487.10757861 853.93652344 488.77294922 C859.22216141 491.79414517 864.50845153 494.81417174 869.79792786 497.8286438 C872.76414644 499.5191345 875.7298637 501.2105031 878.6953125 502.90234375 C879.2782608 503.23490173 879.86120911 503.56745972 880.46182251 503.91009521 C888.54777219 508.52522422 896.60104021 513.19356187 904.6328125 517.90234375 C913.7209845 523.22963317 922.88587409 528.40497913 932.09057617 533.52783203 C940.26581588 538.08865475 948.35333706 542.78756001 956.42578125 547.52734375 C963.55059916 551.69978614 970.73087892 555.76210119 977.9453125 559.77734375 C990.21243713 566.60816299 1002.34316424 573.65918927 1014.4453125 580.77734375 C1016.20569785 581.81125123 1017.9661132 582.84510766 1019.7265625 583.87890625 C1023.63472582 586.17514839 1027.54077601 588.47494044 1031.4453125 590.77734375 C1029.83818033 594.77899823 1027.03098917 597.46695439 1024.02099609 600.44458008 C1023.46784729 600.99962723 1022.91469849 601.55467438 1022.3447876 602.12654114 C1020.51595728 603.95907348 1018.68002691 605.78430688 1016.84375 607.609375 C1015.56503419 608.88689776 1014.28668886 610.16479145 1013.00869751 611.44303894 C1010.32675163 614.12342053 1007.64148085 616.80041043 1004.95361328 619.47485352 C1001.52579331 622.88576123 998.10451437 626.30313605 994.68552208 629.7228899 C992.04337795 632.36476052 989.3986228 635.0040043 986.7530098 637.64240074 C985.49187089 638.90037861 984.23131813 640.1589444 982.97138596 641.41813087 C981.19874263 643.18857872 979.42282719 644.95568007 977.64599609 646.72192383 C977.13555756 647.23281555 976.62511902 647.74370728 976.09921265 648.27008057 C973.32002359 651.02537821 970.46895147 653.65151371 967.50820923 656.21147156 C963.58413295 659.61444255 959.89445943 663.19973767 956.23828125 666.88671875 C955.56721344 667.55924683 954.89614563 668.2317749 954.20474243 668.92468262 C952.7621302 670.37107159 951.32067321 671.81861356 949.88027954 673.26721191 C947.59471963 675.56565127 945.30594922 677.86085084 943.01635742 680.15527344 C938.15651789 685.02648552 933.30062285 689.9016178 928.4453125 694.77734375 C922.81457834 700.43175401 917.18219814 706.0845041 911.54556274 711.73303223 C909.3013297 713.98370174 907.06015327 716.23738406 904.8190918 718.49121094 C903.43032556 719.88361295 902.0414169 721.27587293 900.65234375 722.66796875 C899.73251205 723.59554993 899.73251205 723.59554993 898.7940979 724.54187012 C895.13158324 728.20482356 891.33557554 731.64272316 887.41816711 735.03033447 C884.22908639 737.85434065 881.23673632 740.86300202 878.23828125 743.88671875 C877.56721344 744.55924683 876.89614563 745.2317749 876.20474243 745.92468262 C874.7621302 747.37107159 873.32067321 748.81861356 871.88027954 750.26721191 C869.59471963 752.56565127 867.30594922 754.86085084 865.01635742 757.15527344 C860.15651789 762.02648552 855.30062285 766.9016178 850.4453125 771.77734375 C844.81457834 777.43175401 839.18219814 783.0845041 833.54556274 788.73303223 C831.3013297 790.98370174 829.06015327 793.23738406 826.8190918 795.49121094 C825.43032556 796.88361295 824.0414169 798.27587293 822.65234375 799.66796875 C821.73251205 800.59554993 821.73251205 800.59554993 820.7940979 801.54187012 C817.13158324 805.20482356 813.33557554 808.64272316 809.41816711 812.03033447 C806.22908639 814.85434065 803.23673632 817.86300202 800.23828125 820.88671875 C799.56721344 821.55924683 798.89614563 822.2317749 798.20474243 822.92468262 C796.7621302 824.37107159 795.32067321 825.81861356 793.88027954 827.26721191 C791.59471963 829.56565127 789.30594922 831.86085084 787.01635742 834.15527344 C782.15651789 839.02648552 777.30062285 843.9016178 772.4453125 848.77734375 C766.81457834 854.43175401 761.18219814 860.0845041 755.54556274 865.73303223 C753.3013297 867.98370174 751.06015327 870.23738406 748.8190918 872.49121094 C747.43032556 873.88361295 746.0414169 875.27587293 744.65234375 876.66796875 C743.73251205 877.59554993 743.73251205 877.59554993 742.7940979 878.54187012 C739.13158324 882.20482356 735.33557554 885.64272316 731.41816711 889.03033447 C728.22908639 891.85434065 725.23673632 894.86300202 722.23828125 897.88671875 C721.56721344 898.55924683 720.89614563 899.2317749 720.20474243 899.92468262 C718.7621302 901.37107159 717.32067321 902.81861356 715.88027954 904.26721191 C713.59471963 906.56565127 711.30594922 908.86085084 709.01635742 911.15527344 C704.15651789 916.02648552 699.30062285 920.9016178 694.4453125 925.77734375 C688.81457834 931.43175401 683.18219814 937.0845041 677.54556274 942.73303223 C675.3013297 944.98370174 673.06015327 947.23738406 670.8190918 949.49121094 C669.43032556 950.88361295 668.0414169 952.27587293 666.65234375 953.66796875 C665.73251205 954.59554993 665.73251205 954.59554993 664.7940979 955.54187012 C661.13158324 959.20482356 657.33557554 962.64272316 653.41816711 966.03033447 C650.22908639 968.85434065 647.23673632 971.86300202 644.23828125 974.88671875 C643.56721344 975.55924683 642.89614563 976.2317749 642.20474243 976.92468262 C640.7621302 978.37107159 639.32067321 979.81861356 637.88027954 981.26721191 C635.59471963 983.56565127 633.30594922 985.86085084 631.01635742 988.15527344 C626.15651789 993.02648552 621.30062285 997.9016178 616.4453125 1002.77734375 C610.81457834 1008.43175401 605.18219814 1014.0845041 599.54556274 1019.73303223 C597.3013297 1021.98370174 595.06015327 1024.23738406 592.8190918 1026.49121094 C591.43032556 1027.88361295 590.0414169 1029.27587293 588.65234375 1030.66796875 C588.03912262 1031.2863562 587.42590149 1031.90474365 586.7940979 1032.54187012 C583.06160708 1036.2748081 579.20372206 1039.80619927 575.20095825 1043.24810123 C572.8716338 1045.27704243 570.68408519 1047.4258018 568.5078125 1049.6171875 C567.26064453 1050.86918945 567.26064453 1050.86918945 565.98828125 1052.14648438 C565.14910156 1052.99404297 564.30992187 1053.84160156 563.4453125 1054.71484375 C562.57519531 1055.58947266 561.70507812 1056.46410156 560.80859375 1057.36523438 C558.68517701 1059.50031824 556.56414872 1061.6377158 554.4453125 1063.77734375 C549.64296845 1059.77361176 545.11928773 1055.5882103 540.71899414 1051.14868164 C540.08708664 1050.51531387 539.45517914 1049.88194611 538.80412292 1049.22938538 C537.44389018 1047.8653722 536.08481294 1046.5002059 534.72679329 1045.13398933 C532.57152648 1042.96585509 530.41306064 1040.8009509 528.25376892 1038.63682556 C522.8928251 1033.26257442 517.53734466 1027.88288961 512.18170166 1022.50335693 C507.64870103 1017.95055269 503.11360907 1013.39985088 498.57577324 1008.85186577 C496.46006341 1006.72972266 494.34741374 1004.60456598 492.23487854 1002.47926331 C490.92374421 1001.16449268 489.61246715 999.84986436 488.30102539 998.53540039 C487.72363617 997.95284485 487.14624695 997.37028931 486.55136108 996.77008057 C483.61059963 993.8289464 480.60777966 991.01472096 477.46153259 988.29356384 C473.58340676 984.93748394 469.93995449 981.40052573 466.33007812 977.75976562 C465.66876389 977.09699112 465.00744965 976.43421661 464.32609558 975.75135803 C462.90476393 974.32625027 461.48458749 972.89998957 460.06547546 971.47267151 C457.81352194 969.20783558 455.55835554 966.94624225 453.30236816 964.6854248 C447.70268577 959.07244503 442.10848307 953.45401416 436.51409912 947.83575439 C431.77616543 943.07802316 427.03614375 938.32239053 422.29338074 933.56947327 C420.08238563 931.35204297 417.87444809 929.13159961 415.66662598 926.91101074 C414.29808277 925.53883168 412.92939709 924.16679468 411.56054688 922.79492188 C410.95667648 922.18588516 410.35280609 921.57684845 409.7306366 920.94935608 C406.72650457 917.94485893 403.66531677 915.06261552 400.4510498 912.28308105 C396.54306607 908.90296621 392.87535108 905.3356805 389.23828125 901.66796875 C388.56721344 900.99544067 387.89614563 900.3229126 387.20474243 899.63000488 C385.7621302 898.18361591 384.32067321 896.73607394 382.88027954 895.28747559 C380.59471963 892.98903623 378.30594922 890.69383666 376.01635742 888.39941406 C370.33320031 882.70295775 364.65552163 877.00105116 358.97766113 871.29931641 C354.1692664 866.47112619 349.35878507 861.64503301 344.54556274 856.82165527 C342.3013297 854.57098576 340.06015327 852.31730344 337.8190918 850.06347656 C336.43032556 848.67107455 335.0414169 847.27881457 333.65234375 845.88671875 C333.03912262 845.2683313 332.42590149 844.64994385 331.7940979 844.01281738 C328.12976738 840.34804786 324.33194952 836.90803544 320.41256714 833.51875305 C317.25724576 830.72566979 314.29611552 827.7511785 311.33007812 824.75976562 C310.66876389 824.09699112 310.00744965 823.43421661 309.32609558 822.75135803 C307.90476393 821.32625027 306.48458749 819.89998957 305.06547546 818.47267151 C302.81352194 816.20783558 300.55835554 813.94624225 298.30236816 811.6854248 C292.70268577 806.07244503 287.10848307 800.45401416 281.51409912 794.83575439 C276.77616543 790.07802316 272.03614375 785.32239053 267.29338074 780.56947327 C265.08238563 778.35204297 262.87444809 776.13159961 260.66662598 773.91101074 C259.29808277 772.53883168 257.92939709 771.16679468 256.56054688 769.79492188 C255.95667648 769.18588516 255.35280609 768.57684845 254.7306366 767.94935608 C251.72462193 764.94297606 248.66132956 762.05892957 245.4453125 759.27734375 C241.57201507 755.92726537 237.93461959 752.39514519 234.33007812 748.75976562 C233.66876389 748.09699112 233.00744965 747.43421661 232.32609558 746.75135803 C230.90476393 745.32625027 229.48458749 743.89998957 228.06547546 742.47267151 C225.81352194 740.20783558 223.55835554 737.94624225 221.30236816 735.6854248 C215.70268577 730.07244503 210.10848307 724.45401416 204.51409912 718.83575439 C199.77616543 714.07802316 195.03614375 709.32239053 190.29338074 704.56947327 C188.08238563 702.35204297 185.87444809 700.13159961 183.66662598 697.91101074 C182.29808277 696.53883168 180.92939709 695.16679468 179.56054688 693.79492188 C178.95667648 693.18588516 178.35280609 692.57684845 177.7306366 691.94935608 C174.72650457 688.94485893 171.66531677 686.06261552 168.4510498 683.28308105 C164.54306607 679.90296621 160.87535108 676.3356805 157.23828125 672.66796875 C156.56721344 671.99544067 155.89614563 671.3229126 155.20474243 670.63000488 C153.7621302 669.18361591 152.32067321 667.73607394 150.88027954 666.28747559 C148.59471963 663.98903623 146.30594922 661.69383666 144.01635742 659.39941406 C138.33320031 653.70295775 132.65552163 648.00105116 126.97766113 642.29931641 C122.1692664 637.47112619 117.35878507 632.64503301 112.54556274 627.82165527 C110.3013297 625.57098576 108.06015327 623.31730344 105.8190918 621.06347656 C104.43032556 619.67107455 103.0414169 618.27881457 101.65234375 616.88671875 C101.03912262 616.2683313 100.42590149 615.64994385 99.7940979 615.01281738 C96.12976738 611.34804786 92.33194952 607.90803544 88.41256714 604.51875305 C85.25724576 601.72566979 82.29611552 598.7511785 79.33007812 595.75976562 C78.66876389 595.09699112 78.00744965 594.43421661 77.32609558 593.75135803 C75.90476393 592.32625027 74.48458749 590.89998957 73.06547546 589.47267151 C70.81352194 587.20783558 68.55835554 584.94624225 66.30236816 582.6854248 C60.70268577 577.07244503 55.10848307 571.45401416 49.51409912 565.83575439 C44.77616543 561.07802316 40.03614375 556.32239053 35.29338074 551.56947327 C33.08238563 549.35204297 30.87444809 547.13159961 28.66662598 544.91101074 C27.29808277 543.53883168 25.92939709 542.16679468 24.56054688 540.79492188 C23.95667648 540.18588516 23.35280609 539.57684845 22.7306366 538.94935608 C19.72462193 535.94297606 16.66132956 533.05892957 13.4453125 530.27734375 C9.57201507 526.92726537 5.93461959 523.39514519 2.33007812 519.75976562 C1.66876389 519.09699112 1.00744965 518.43421661 0.32609558 517.75135803 C-1.09523607 516.32625027 -2.51541251 514.89998957 -3.93452454 513.47267151 C-6.18647806 511.20783558 -8.44164446 508.94624225 -10.69763184 506.6854248 C-16.29731423 501.07244503 -21.89151693 495.45401416 -27.48590088 489.83575439 C-32.22383457 485.07802316 -36.96385625 480.32239053 -41.70661926 475.56947327 C-43.91761437 473.35204297 -46.12555191 471.13159961 -48.33337402 468.91101074 C-49.70191723 467.53883168 -51.07060291 466.16679468 -52.43945312 464.79492188 C-53.04332352 464.18588516 -53.64719391 463.57684845 -54.2693634 462.94935608 C-57.27537807 459.94297606 -60.33867044 457.05892957 -63.5546875 454.27734375 C-67.42798493 450.92726537 -71.06538041 447.39514519 -74.66992188 443.75976562 C-75.33123611 443.09699112 -75.99255035 442.43421661 -76.67390442 441.75135803 C-78.09523607 440.32625027 -79.51541251 438.89998957 -80.93452454 437.47267151 C-83.18647806 435.20783558 -85.44164446 432.94624225 -87.69763184 430.6854248 C-93.29731423 425.07244503 -98.89151693 419.45401416 -104.48590088 413.83575439 C-109.22383457 409.07802316 -113.96385625 404.32239053 -118.70661926 399.56947327 C-120.91761437 397.35204297 -123.12555191 395.13159961 -125.33337402 392.91101074 C-126.70191723 391.53883168 -128.07060291 390.16679468 -129.43945312 388.79492188 C-130.04332352 388.18588516 -130.64719391 387.57684845 -131.2693634 386.94935608 C-134.27349543 383.94485893 -137.33468323 381.06261552 -140.5489502 378.28308105 C-144.45693393 374.90296621 -148.12464892 371.3356805 -151.76171875 367.66796875 C-152.76832047 366.65917664 -152.76832047 366.65917664 -153.79525757 365.63000488 C-155.2378698 364.18361591 -156.67932679 362.73607394 -158.11972046 361.28747559 C-160.40528037 358.98903623 -162.69405078 356.69383666 -164.98364258 354.39941406 C-170.66679969 348.70295775 -176.34447837 343.00105116 -182.02233887 337.29931641 C-186.8307336 332.47112619 -191.64121493 327.64503301 -196.45443726 322.82165527 C-198.6986703 320.57098576 -200.93984673 318.31730344 -203.1809082 316.06347656 C-204.56967444 314.67107455 -205.9585831 313.27881457 -207.34765625 311.88671875 C-208.26748795 310.95913757 -208.26748795 310.95913757 -209.2059021 310.01281738 C-212.87023262 306.34804786 -216.66805048 302.90803544 -220.58743286 299.51875305 C-223.74275424 296.72566979 -226.70388448 293.7511785 -229.66992188 290.75976562 C-230.33123611 290.09699112 -230.99255035 289.43421661 -231.67390442 288.75135803 C-233.09523607 287.32625027 -234.51541251 285.89998957 -235.93452454 284.47267151 C-238.18647806 282.20783558 -240.44164446 279.94624225 -242.69763184 277.6854248 C-248.29731423 272.07244503 -253.89151693 266.45401416 -259.48590088 260.83575439 C-264.22383457 256.07802316 -268.96385625 251.32239053 -273.70661926 246.56947327 C-275.91761437 244.35204297 -278.12555191 242.13159961 -280.33337402 239.91101074 C-281.70191723 238.53883168 -283.07060291 237.16679468 -284.43945312 235.79492188 C-285.04332352 235.18588516 -285.64719391 234.57684845 -286.2693634 233.94935608 C-289.27537807 230.94297606 -292.33867044 228.05892957 -295.5546875 225.27734375 C-299.42798493 221.92726537 -303.06538041 218.39514519 -306.66992188 214.75976562 C-307.33123611 214.09699112 -307.99255035 213.43421661 -308.67390442 212.75135803 C-310.09523607 211.32625027 -311.51541251 209.89998957 -312.93452454 208.47267151 C-315.18647806 206.20783558 -317.44164446 203.94624225 -319.69763184 201.6854248 C-325.29731423 196.07244503 -330.89151693 190.45401416 -336.48590088 184.83575439 C-341.22383457 180.07802316 -345.96385625 175.32239053 -350.70661926 170.56947327 C-352.91761437 168.35204297 -355.12555191 166.13159961 -357.33337402 163.91101074 C-358.70191723 162.53883168 -360.07060291 161.16679468 -361.43945312 159.79492188 C-362.34525871 158.88136681 -362.34525871 158.88136681 -363.2693634 157.94935608 C-367.52911529 153.68908645 -371.97938597 149.69582237 -376.5546875 145.77734375 C-366.45718162 108.671062 -348.76626363 74.42201255 -322.64453125 46.05078125 C-320.69597335 43.93104163 -318.80711417 41.77250906 -316.9296875 39.58984375 C-311.27764763 33.11923259 -305.13212918 27.29694847 -298.5546875 21.77734375 C-297.8131543 21.14916748 -297.8131543 21.14916748 -297.05664062 20.50830078 C-221.5666929 -43.06572475 -110.61819015 -56.48756401 0 0 Z " fill="#34A753" transform="translate(384.5546875,38.22265625)"/>
<path d="M0 0 C3.95196011 1.27730275 7.38876576 2.63348495 10.95703125 4.765625 C11.89160156 5.31863281 12.82617188 5.87164063 13.7890625 6.44140625 C15.28566406 7.33666016 15.28566406 7.33666016 16.8125 8.25 C25.31634624 13.27736565 33.86424302 18.20273473 42.5 23 C51.72974156 28.13552839 60.87238792 33.40213603 69.98046875 38.75 C77.10528525 42.92244156 84.28553837 46.98481022 91.5 51 C100.65723315 56.09830924 109.7369317 61.31308055 118.77832031 66.61376953 C126.4079881 71.08278735 134.06977486 75.49361631 141.75 79.875 C142.33431793 80.20836365 142.91863586 80.54172729 143.5206604 80.88519287 C146.4919198 82.5800349 149.46363272 84.27407984 152.43554688 85.96777344 C157.71093295 88.97470744 162.98234438 91.98859617 168.25402832 95.00201416 C171.16918658 96.6682993 174.08460663 98.33412627 177 100 C178.16666792 100.66666448 179.33333459 101.33333114 180.5 102 C181.36625 102.495 181.36625 102.495 182.25 103 C187.50000005 106.00000003 187.50000005 106.00000003 189.24996948 106.99998474 C190.41673537 107.66670665 191.58350376 108.33342418 192.75027466 109.00013733 C195.66544378 110.66592284 198.58056947 112.33178427 201.49560547 113.99780273 C206.76343195 117.00840313 212.03157559 120.01844147 217.30133057 123.02566528 C230.29103355 130.43839663 243.26572044 137.87611088 256.21582031 145.35791016 C267.611459 151.93788357 279.03889357 158.46191372 290.46777344 164.98388672 C295.7304792 167.98733176 300.99117186 170.99429965 306.25201416 174.00100708 C309.16792672 175.66748282 312.08396998 177.33372982 315 179 C316.16666729 179.66666557 317.33333396 180.33333224 318.5 181 C319.0775 181.33 319.655 181.66 320.25 182 C353.50000004 201.00000003 353.50000004 201.00000003 355.24996948 201.99998474 C356.41673537 202.66670665 357.58350376 203.33342418 358.75027466 204.00013733 C361.66544378 205.66592284 364.58056947 207.33178427 367.49560547 208.99780273 C372.76343195 212.00840313 378.03157559 215.01844147 383.30133057 218.02566528 C396.2842177 225.43450708 409.25737668 232.85937708 422.19384766 240.34912109 C427.85192945 243.6215031 433.52335055 246.86739821 439.21875 250.07421875 C461.08761905 262.40304086 481.9771547 275.2898826 500.34765625 292.53515625 C502.45711064 294.49548868 504.58945942 296.36054683 506.8125 298.1875 C509.9168954 300.81314527 512.52003031 303.74026759 515.14453125 306.83984375 C516.37966556 308.27780012 517.64850174 309.68748982 518.94921875 311.06640625 C531.84025069 324.76759547 542.11940728 340.47695671 551 357 C551.36818848 357.68126953 551.73637695 358.36253906 552.11572266 359.06445312 C565.40541914 383.91759349 573.21913608 410.3177949 578 438 C578.13422363 438.75861328 578.26844727 439.51722656 578.40673828 440.29882812 C585.77136217 484.01009792 577.63515464 531.73207395 560 572 C559.68192383 572.72654785 559.36384766 573.4530957 559.03613281 574.20166016 C548.4090208 598.15555413 534.04173931 619.97057423 516 639 C514.93206317 640.26626796 513.86927295 641.53690032 512.8125 642.8125 C502.34284781 654.770844 489.84513003 664.73430529 477 674 C476.40316406 674.43231934 475.80632813 674.86463867 475.19140625 675.31005859 C465.13571301 682.50694789 454.34426572 688.38426796 443.53515625 694.359375 C437.30079688 697.81316023 431.14318882 701.38713427 425 705 C415.85129522 710.37267982 406.62595073 715.59077524 397.35546875 720.75 C390.18646043 724.74964599 383.07913415 728.84358252 376 733 C366.775649 738.41450699 357.47985528 743.68630694 348.13793945 748.89501953 C339.00862258 753.98624609 329.92905085 759.16042475 320.86132812 764.36035156 C315.98311773 767.15574926 311.10065746 769.94370875 306.21865845 772.73248291 C303.22763672 774.441155 300.23687939 776.15028974 297.24609375 777.859375 C296.03499474 778.55143448 294.82389448 779.24349177 293.61279297 779.93554688 C292.71545441 780.44831177 292.71545441 780.44831177 291.79998779 780.97143555 C258.50000004 799.99999998 258.50000004 799.99999998 256.75004578 800.99996948 C255.58322151 801.66672911 254.41640226 802.3334975 253.24958801 803.00027466 C250.33537354 804.66559088 247.42107258 806.33075537 244.5065918 807.99560547 C239.22724336 811.01154606 233.94856056 814.02862341 228.67306519 817.05130005 C225.71996984 818.7432784 222.76637011 820.43437464 219.8125 822.125 C219.23149536 822.45755798 218.65049072 822.79011597 218.05187988 823.13275146 C209.81214849 827.84669898 201.54203158 832.50367995 193.25 837.125 C184.10554429 842.22214598 175.04640908 847.44998746 166.01855469 852.75048828 C157.85881504 857.52923087 149.61791893 862.15176686 141.35546875 866.75 C134.18646305 870.74964452 127.07907237 874.84348044 120 879 C110.84945939 884.37279449 101.62331625 889.5927244 92.35107422 894.75219727 C85.22371733 898.72815635 78.16060908 902.80163998 71.125 906.9375 C61.53858541 912.57062372 51.8518864 918.00103684 42.11303711 923.36572266 C33.20817792 928.28616789 24.41552194 933.38165353 15.6875 938.609375 C14.30111328 939.43115234 14.30111328 939.43115234 12.88671875 940.26953125 C12.08451904 940.75010986 11.28231934 941.23068848 10.45581055 941.72583008 C7.71047011 943.15021936 4.93884866 944.0497803 2 945 C-8.15518627 935.60325694 -18.10212687 926.03293165 -27.85528564 916.21987915 C-30.00696286 914.05511464 -32.16203273 911.89377444 -34.31787109 909.7331543 C-38.88146451 905.15830538 -43.44103041 900.57945609 -48 896 C-53.32005056 890.65620358 -58.64181769 885.31413838 -63.96780396 879.97625732 C-66.07689634 877.86074997 -68.18292544 875.74222671 -70.28881836 873.62353516 C-71.59083383 872.31788501 -72.89299112 871.01237627 -74.1953125 869.70703125 C-75.05421333 868.84038094 -75.05421333 868.84038094 -75.9304657 867.95622253 C-78.85609273 865.03022161 -81.84454258 862.23200035 -84.97485352 859.52514648 C-88.888608 856.13783786 -92.56357474 852.56477723 -96.20703125 848.890625 C-96.87809906 848.21809692 -97.54916687 847.54556885 -98.24057007 846.85266113 C-99.6831823 845.40627216 -101.12463929 843.95873019 -102.56503296 842.51013184 C-104.85059287 840.21169248 -107.13936328 837.91649291 -109.42895508 835.62207031 C-115.11211219 829.925614 -120.78979087 824.22370741 -126.46765137 818.52197266 C-131.2760461 813.69378244 -136.08652743 808.86768926 -140.89974976 804.04431152 C-143.1439828 801.79364201 -145.38515923 799.53995969 -147.6262207 797.28613281 C-149.01498694 795.8937308 -150.4038956 794.50147082 -151.79296875 793.109375 C-152.40618988 792.49098755 -153.01941101 791.8726001 -153.6512146 791.23547363 C-157.31554512 787.57070411 -161.11336298 784.13069169 -165.03274536 780.7414093 C-168.18806674 777.94832604 -171.14919698 774.97383475 -174.11523438 771.98242188 C-174.77654861 771.31964737 -175.43786285 770.65687286 -176.11921692 769.97401428 C-177.54054857 768.54890652 -178.96072501 767.12264582 -180.37983704 765.69532776 C-182.63179056 763.43049183 -184.88695696 761.1688985 -187.14294434 758.90808105 C-192.74262673 753.29510128 -198.33682943 747.67667041 -203.93121338 742.05841064 C-208.66914707 737.30067941 -213.40916875 732.54504678 -218.15193176 727.79212952 C-220.36292687 725.57469922 -222.57086441 723.35425586 -224.77868652 721.13366699 C-226.14722973 719.76148793 -227.51591541 718.38945093 -228.88476562 717.01757812 C-229.48863602 716.40854141 -230.09250641 715.7995047 -230.7146759 715.17201233 C-233.71880793 712.16751518 -236.77999573 709.28527177 -239.9942627 706.5057373 C-243.90224643 703.12562246 -247.56996142 699.55833675 -251.20703125 695.890625 C-251.87809906 695.21809692 -252.54916687 694.54556885 -253.24057007 693.85266113 C-254.6831823 692.40627216 -256.12463929 690.95873019 -257.56503296 689.51013184 C-259.85059287 687.21169248 -262.13936328 684.91649291 -264.42895508 682.62207031 C-270.11211219 676.925614 -275.78979087 671.22370741 -281.46765137 665.52197266 C-286.2760461 660.69378244 -291.08652743 655.86768926 -295.89974976 651.04431152 C-298.1439828 648.79364201 -300.38515923 646.53995969 -302.6262207 644.28613281 C-304.01498694 642.8937308 -305.4038956 641.50147082 -306.79296875 640.109375 C-307.71280045 639.18179382 -307.71280045 639.18179382 -308.6512146 638.23547363 C-311.67843524 635.20789032 -314.76104382 632.30091412 -318 629.5 C-321.90627893 626.12201301 -325.57184934 622.55643292 -329.20703125 618.890625 C-329.87809906 618.21809692 -330.54916687 617.54556885 -331.24057007 616.85266113 C-332.6831823 615.40627216 -334.12463929 613.95873019 -335.56503296 612.51013184 C-337.85059287 610.21169248 -340.13936328 607.91649291 -342.42895508 605.62207031 C-348.11211219 599.925614 -353.78979087 594.22370741 -359.46765137 588.52197266 C-364.2760461 583.69378244 -369.08652743 578.86768926 -373.89974976 574.04431152 C-376.1439828 571.79364201 -378.38515923 569.53995969 -380.6262207 567.28613281 C-382.01498694 565.8937308 -383.4038956 564.50147082 -384.79296875 563.109375 C-385.40618988 562.49098755 -386.01941101 561.8726001 -386.6512146 561.23547363 C-390.31554512 557.57070411 -394.11336298 554.13069169 -398.03274536 550.7414093 C-401.18806674 547.94832604 -404.14919698 544.97383475 -407.11523438 541.98242188 C-407.77654861 541.31964737 -408.43786285 540.65687286 -409.11921692 539.97401428 C-410.54054857 538.54890652 -411.96072501 537.12264582 -413.37983704 535.69532776 C-415.63179056 533.43049183 -417.88695696 531.1688985 -420.14294434 528.90808105 C-425.74262673 523.29510128 -431.33682943 517.67667041 -436.93121338 512.05841064 C-441.66914707 507.30067941 -446.40916875 502.54504678 -451.15193176 497.79212952 C-453.36292687 495.57469922 -455.57086441 493.35425586 -457.77868652 491.13366699 C-459.14722973 489.76148793 -460.51591541 488.38945093 -461.88476562 487.01757812 C-462.48863602 486.40854141 -463.09250641 485.7995047 -463.7146759 485.17201233 C-467.97442779 480.9117427 -472.42469847 476.91847862 -477 473 C-475.2320901 469.2117871 -473.03078309 466.78676006 -470.0546875 463.82421875 C-469.32162888 463.09184746 -469.32162888 463.09184746 -468.57376099 462.34468079 C-467.53884333 461.31277802 -466.50150249 460.28330056 -465.46191406 459.25610352 C-463.89599331 457.70825108 -462.33803642 456.1527365 -460.78125 454.59570312 C-456.698637 450.53294239 -452.63231411 446.52196208 -448.26370239 442.76667786 C-444.27948641 439.28985846 -440.51521869 435.64423449 -436.79296875 431.890625 C-436.12190094 431.21809692 -435.45083313 430.54556885 -434.75942993 429.85266113 C-433.3168177 428.40627216 -431.87536071 426.95873019 -430.43496704 425.51013184 C-428.14940713 423.21169248 -425.86063672 420.91649291 -423.57104492 418.62207031 C-418.71120539 413.75085823 -413.85531035 408.87572595 -409 404 C-403.36926584 398.34558974 -397.73688564 392.69283965 -392.10025024 387.04431152 C-389.8560172 384.79364201 -387.61484077 382.53995969 -385.3737793 380.28613281 C-383.98501306 378.8937308 -382.5961044 377.50147082 -381.20703125 376.109375 C-380.59381012 375.49098755 -379.98058899 374.8726001 -379.3487854 374.23547363 C-375.68627074 370.57252019 -371.89026304 367.13462059 -367.97285461 363.74700928 C-364.78377389 360.9230031 -361.79142382 357.91434173 -358.79296875 354.890625 C-358.12190094 354.21809692 -357.45083313 353.54556885 -356.75942993 352.85266113 C-355.3168177 351.40627216 -353.87536071 349.95873019 -352.43496704 348.51013184 C-350.14940713 346.21169248 -347.86063672 343.91649291 -345.57104492 341.62207031 C-340.71120539 336.75085823 -335.85531035 331.87572595 -331 327 C-325.36926584 321.34558974 -319.73688564 315.69283965 -314.10025024 310.04431152 C-311.8560172 307.79364201 -309.61484077 305.53995969 -307.3737793 303.28613281 C-305.98501306 301.8937308 -304.5961044 300.50147082 -303.20703125 299.109375 C-302.28719955 298.18179382 -302.28719955 298.18179382 -301.3487854 297.23547363 C-297.68627074 293.57252019 -293.89026304 290.13462059 -289.97285461 286.74700928 C-286.78377389 283.9230031 -283.79142382 280.91434173 -280.79296875 277.890625 C-280.12190094 277.21809692 -279.45083313 276.54556885 -278.75942993 275.85266113 C-277.3168177 274.40627216 -275.87536071 272.95873019 -274.43496704 271.51013184 C-272.14940713 269.21169248 -269.86063672 266.91649291 -267.57104492 264.62207031 C-262.71120539 259.75085823 -257.85531035 254.87572595 -253 250 C-247.36926584 244.34558974 -241.73688564 238.69283965 -236.10025024 233.04431152 C-233.8560172 230.79364201 -231.61484077 228.53995969 -229.3737793 226.28613281 C-227.98501306 224.8937308 -226.5961044 223.50147082 -225.20703125 222.109375 C-224.59381012 221.49098755 -223.98058899 220.8726001 -223.3487854 220.23547363 C-219.68627074 216.57252019 -215.89026304 213.13462059 -211.97285461 209.74700928 C-208.78377389 206.9230031 -205.79142382 203.91434173 -202.79296875 200.890625 C-202.12190094 200.21809692 -201.45083313 199.54556885 -200.75942993 198.85266113 C-199.3168177 197.40627216 -197.87536071 195.95873019 -196.43496704 194.51013184 C-194.14940713 192.21169248 -191.86063672 189.91649291 -189.57104492 187.62207031 C-184.71120539 182.75085823 -179.85531035 177.87572595 -175 173 C-169.36926584 167.34558974 -163.73688564 161.69283965 -158.10025024 156.04431152 C-155.8560172 153.79364201 -153.61484077 151.53995969 -151.3737793 149.28613281 C-149.98501306 147.8937308 -148.5961044 146.50147082 -147.20703125 145.109375 C-146.59381012 144.49098755 -145.98058899 143.8726001 -145.3487854 143.23547363 C-141.68627074 139.57252019 -137.89026304 136.13462059 -133.97285461 132.74700928 C-130.78377389 129.9230031 -127.79142382 126.91434173 -124.79296875 123.890625 C-124.12190094 123.21809692 -123.45083313 122.54556885 -122.75942993 121.85266113 C-121.3168177 120.40627216 -119.87536071 118.95873019 -118.43496704 117.51013184 C-116.14940713 115.21169248 -113.86063672 112.91649291 -111.57104492 110.62207031 C-106.71120539 105.75085823 -101.85531035 100.87572595 -97 96 C-91.36926584 90.34558974 -85.73688564 84.69283965 -80.10025024 79.04431152 C-77.8560172 76.79364201 -75.61484077 74.53995969 -73.3737793 72.28613281 C-71.98501306 70.8937308 -70.5961044 69.50147082 -69.20703125 68.109375 C-68.59381012 67.49098755 -67.98058899 66.8726001 -67.3487854 66.23547363 C-63.65964995 62.54589621 -59.83745932 59.07634373 -55.89108276 55.66425896 C-53.19879981 53.29489887 -50.66033042 50.79292454 -48.13476562 48.24829102 C-47.6069046 47.72057602 -47.07904358 47.19286102 -46.53518677 46.64915466 C-44.8231546 44.93643614 -43.11467347 43.22022375 -41.40625 41.50390625 C-40.20721046 40.30299797 -39.00794723 39.102313 -37.80847168 37.90184021 C-34.67619792 34.76577715 -31.5469409 31.62672111 -28.41833496 28.48699951 C-25.2156273 25.27399999 -22.01003092 22.06388529 -18.8046875 18.85351562 C-12.53365211 12.57180629 -6.26580477 6.28692642 0 0 Z " fill="#FABB04" transform="translate(1416,630)"/>
</svg>
